<?xml version="1.0" encoding="UTF-8"?>
<svg id="Layer_2" data-name="Layer 2" xmlns="http://www.w3.org/2000/svg" viewBox="0 0 456.24 357.76">
  <defs>
    <style>
      .cls-1 {
        fill: transparent;
        stroke-miterlimit: 10;
        stroke-width: 10px;
        stroke: currentColor;

      }
    </style>
  </defs>
  <g id="Layer_1-2" data-name="Layer 1">
    <polygon class="cls-1" stroke="currentColor" points="83.64 254.91 372.11 254.91 449.12 42.02 83.65 42.02 83.64 254.91"/>
    <line class="cls-1" stroke="currentColor" x1="83.62" y1="116.57" x2="422.15" y2="116.57"/>
    <line class="cls-1" stroke="currentColor" x1="83.63" y1="77.37" x2="436.33" y2="77.37"/>
    <line class="cls-1" stroke="currentColor" x1="83.63" y1="156.11" x2="407.85" y2="156.11"/>
    <line class="cls-1" stroke="currentColor" x1="83.62" y1="195.33" x2="394.74" y2="195.33"/>
    <line class="cls-1" stroke="currentColor" x1="83.62" y1="225.62" x2="381.1" y2="225.62"/>
    <circle class="cls-1" stroke="currentColor" cx="125.96" cy="320.71" r="32.05"/>
    <circle class="cls-1" stroke="currentColor" cx="334.91" cy="320.71" r="32.05"/>
    <polyline class="cls-1" stroke="currentColor" points="83.62 254.91 66.83 323 93.91 323"/>
    <line class="cls-1" stroke="currentColor" x1="157.92" y1="323" x2="299.74" y2="323"/>
    <path class="cls-1" stroke="currentColor" d="m86.43,42.02c-.11-.72-17.23-31.12-17.25-31.13-9.33-6.28-19.66-6.1-39.62-5.75-12.15.21-22.1,1.48-28.76,2.56"/>
  </g>
</svg>
